<svg width="15" height="15" fill="none" xmlns="http://www.w3.org/2000/svg"><g clip-path="url(#a)" fill="#FF9846"><path d="M7.5 2.446c.18 0 .326-.147.326-.326v-.163A.327.327 0 0 0 7.5 1.63a.327.327 0 0 0-.326.327v.163c0 .179.147.326.326.326Zm0 10.108a.327.327 0 0 0-.326.326v.163a.327.327 0 0 0 .652.001v-.164a.327.327 0 0 0-.326-.326Zm-5.38-5.38h-.163a.327.327 0 0 0-.327.326c0 .18.147.326.327.326h.163a.327.327 0 0 0 .326-.326.327.327 0 0 0-.326-.326Zm10.923 0h-.163a.327.327 0 0 0-.326.326c0 .18.147.326.326.326h.163c.18 0 .327-.147.327-.326a.327.327 0 0 0-.326-.326ZM3.815 3.359a.315.315 0 0 0-.456 0 .315.315 0 0 0 0 .456l.114.114a.322.322 0 0 0 .228.098.322.322 0 0 0 .228-.098.315.315 0 0 0 0-.456l-.114-.114Zm-.342 7.711-.114.115a.315.315 0 0 0 0 .456.322.322 0 0 0 .228.098.322.322 0 0 0 .228-.098l.114-.114a.315.315 0 0 0 0-.456.315.315 0 0 0-.456 0Zm7.712-7.711-.114.114a.315.315 0 0 0 0 .456.322.322 0 0 0 .228.098.322.322 0 0 0 .228-.098l.114-.114a.315.315 0 0 0 0-.456.315.315 0 0 0-.456 0ZM7.826 7.37V4.402a.327.327 0 0 0-.326-.326.327.327 0 0 0-.326.326V7.5c0 .082.033.163.098.228l3.57 3.57a.322.322 0 0 0 .229.099.322.322 0 0 0 .228-.098.315.315 0 0 0 0-.457L7.826 7.37Z"/><path d="M7.5 0a7.501 7.501 0 0 0 0 15 7.501 7.501 0 0 0 0-15Zm0 14.348A6.847 6.847 0 0 1 .652 7.5 6.847 6.847 0 0 1 7.5.652 6.847 6.847 0 0 1 14.348 7.5 6.847 6.847 0 0 1 7.5 14.348Z"/></g><defs><clipPath id="a"><path fill="#fff" d="M0 0h15v15H0z"/></clipPath></defs></svg>