<svg width="30" height="30" fill="none" xmlns="http://www.w3.org/2000/svg"><g clip-path="url(#a)" fill="#A4ACAD"><path d="M27.047 2.232a4.2 4.2 0 0 0-5.94 0L7.384 15.955a4.206 4.206 0 0 0-.566 5.233l-5.407 5.408a1.408 1.408 0 1 0 1.993 1.993l5.407-5.407a4.196 4.196 0 0 0 5.234-.567L27.768 8.893a4.205 4.205 0 0 0 0-5.94l-.721-.721ZM2.744 27.927a.49.49 0 0 1-.673 0 .478.478 0 0 1 0-.673l5.337-5.336.674.674-5.338 5.335ZM27.108 8.234l-13.723 13.72a3.267 3.267 0 0 1-4.62 0l-.72-.72a3.27 3.27 0 0 1 0-4.62l13.72-13.722a3.27 3.27 0 0 1 4.62 0l.723.722a3.27 3.27 0 0 1 0 4.62Z"/><path d="M24.078 2.904a2.333 2.333 0 0 0-1.663.688L20.08 5.925a.467.467 0 1 0 .659.66l2.333-2.333a1.455 1.455 0 0 1 2.007 0 .467.467 0 0 0 .66-.66 2.338 2.338 0 0 0-1.662-.688Zm-6.001 6.152c.124 0 .243-.05.33-.137l1-1a.467.467 0 1 0-.66-.66l-1 1a.467.467 0 0 0 .33.797Zm-1.333 1.534a.471.471 0 1 0-.667-.667.471.471 0 0 0 .666.666Zm3.003 2.337-6.667 6.667a.467.467 0 1 0 .66.66l6.667-6.668a.467.467 0 0 0-.66-.66Z"/></g><defs><clipPath id="a"><path fill="#fff" transform="translate(1 1)" d="M0 0h28v28H0z"/></clipPath></defs></svg>