<svg width="30" height="30" fill="none" xmlns="http://www.w3.org/2000/svg"><g clip-path="url(#a)" fill="#A4ACAD"><path d="M28.665 9.034c-1.376-.859-2.717-.995-3.9-.402-.306-.304-.934-.805-1.786-.867-.76-.056-1.51.247-2.231.897a2.7 2.7 0 0 0-.827-1.66 2.924 2.924 0 0 0-2.025-.783c-1.371 0-2.556 1.032-2.842 2.364L11.709 6.43a.63.63 0 0 0-.895.233c-.041.075-.08.151-.117.229-1.076-.397-2.426-.116-3.226.718a2.788 2.788 0 0 0-.699 2.654H6.57c-.519-1.879-2.422-2.866-2.503-2.908a.359.359 0 0 0-.406.583c.03.05.259.496-.262 2.021C2.095 9.232.726 8.997.45 8.956a.49.49 0 0 0-.099-.01.359.359 0 0 0-.041.714l.057.01.13.18c.197.278.473.893.664 2.242.147 1.031.737 1.903 1.382 2.465-.471.103-.812.387-.858.751a4.536 4.536 0 0 0-.036.567c0 2.054 1.367 3.97 3.85 5.395 1.182.678 2.553 1.208 4.043 1.572v1.303a.358.358 0 0 0 .358.358h9.27a.359.359 0 0 0 .358-.358v-1.303c1.49-.365 2.862-.894 4.044-1.572 2.482-1.425 3.85-3.341 3.85-5.396a4.47 4.47 0 0 0-.037-.566.692.692 0 0 0-.11-.293c1.158-.426 1.994-1.406 2.439-2.33a2.843 2.843 0 0 0-1.05-3.65ZM17.896 6.936c1.093 0 1.947.704 2.122 1.689a7.18 7.18 0 0 0-.678.02 1.515 1.515 0 0 0-2.904.622c0 .071.004.143.012.214l-.734-.473c.098-1.141 1.057-2.072 2.182-2.072Zm.672 1.816c-.5.096-.978.28-1.415.54v-.026a.795.795 0 0 1 1.415-.514Zm-7.167-1.667 4.802 3.09c-.13.184-.24.38-.33.585l-3.21-2.067a.574.574 0 0 0-.738.095.587.587 0 0 0-.133.234c-.214.732-.021 1.67.528 2.57.515.843 1.315 1.608 2.278 2.187-.19.229-.37.45-.453.735h-.16c-1.268-.917-2.231-2.184-2.716-3.582-.482-1.386-.434-2.749.133-3.847Zm3.718 5.7a.5.5 0 0 0 .112.053c-.06.125-.127.247-.2.364-1.857-1.087-2.756-2.734-2.59-3.8l3.203 2.064c-.01.043-.02.087-.028.131a6.341 6.341 0 0 1-.07.328.48.48 0 0 0-.636.558.485.485 0 0 0 .21.302Zm-4.213-.856a8.3 8.3 0 0 0 1.94 2.585h-1.94V11.93ZM7.988 8.106c.598-.622 1.641-.839 2.451-.545a4.978 4.978 0 0 0-.13.541 1.907 1.907 0 0 0-.61-.099 1.793 1.793 0 0 0-1.721 2.26h-.454a2.046 2.046 0 0 1 .464-2.157Zm2.356 2.157H8.735a1.14 1.14 0 0 1-.102-.461A1.075 1.075 0 0 1 9.7 8.72c.183-.002.364.04.528.124a5.99 5.99 0 0 0 .117 1.42Zm-3.653.717h3.497v3.534H5.905c.038-.3.047-.602.03-.903.558-.898.81-1.78.756-2.63ZM4.45 8.471c.526.417 1.191 1.097 1.435 2.006.17.639.11 1.314-.177 2.014a4.009 4.009 0 0 0-.52-.992 4.986 4.986 0 0 0-1.168-1.146c.268-.75.413-1.38.43-1.882Zm-2.579 3.52c-.126-.89-.305-1.592-.533-2.1.987.285 2.447.877 3.267 2.025.523.732.715 1.605.576 2.598h-.248c-.436-2.4-1.796-3.08-1.856-3.108a.358.358 0 1 0-.31.646c.01.005 1.046.524 1.437 2.462h-.292c-.593-.066-1.837-1.088-2.04-2.523Zm16.94 11.796H10.26v-.784c2.823.56 5.73.56 8.552 0v.784Zm7.87-7.5H8.727a.359.359 0 0 0 0 .718h17.81c-.408 1.362-1.552 2.628-3.32 3.643-2.313 1.327-5.396 2.058-8.68 2.058-3.285 0-6.368-.73-8.68-2.058-1.77-1.015-2.913-2.28-3.321-3.643h3.681a.359.359 0 0 0 0-.717H2.391a3.75 3.75 0 0 1 .005-.883c.03-.052.225-.174.544-.174h23.192c.32 0 .515.122.544.174a3.802 3.802 0 0 1 .006.883Zm-10.556-1.773a19.984 19.984 0 0 1 1.887-.597.984.984 0 0 0 .036.035c.26.215.54.404.838.562h-2.761Zm12.942-2.139c-.486 1.01-1.514 2.102-2.943 2.14H20.68a7.953 7.953 0 0 1-1.777-.823 51.664 51.664 0 0 1 3.518-.691c.016.02.032.04.05.06.452.47 1.35 1.245 2.372 1.245l.09-.002a.359.359 0 1 0-.032-.717c-.605.027-1.207-.383-1.599-.725a73.945 73.945 0 0 1 3.669-.465.358.358 0 1 0-.067-.714c-.155.015-1.736.166-3.772.475.27-.49.805-1.176 1.73-1.328a.358.358 0 0 0-.117-.708c-1.512.25-2.204 1.539-2.431 2.082a.782.782 0 0 0-.03.088 50.596 50.596 0 0 0-3.686.734c.2-.572.641-1.44 1.52-1.737a.357.357 0 0 0 .228-.456.359.359 0 0 0-.458-.223c-1.39.47-1.918 1.936-2.08 2.544a.83.83 0 0 0-.016.08c-.93.252-1.797.537-2.521.857.348-.43.806-1.08 1.05-2.36.233-1.228 1.036-1.994 2.384-2.276a6.331 6.331 0 0 1 2.09-.05.358.358 0 0 0 .31-.096c.61-.591 1.22-.87 1.816-.83.884.062 1.48.816 1.486.823a.359.359 0 0 0 .47.088c1.01-.613 2.157-.528 3.408.253a2.128 2.128 0 0 1 .783 2.732Z"/><path d="M14.296 10.858a.48.48 0 0 0-.73.51.486.486 0 0 0 .468.38.486.486 0 0 0 .409-.226.486.486 0 0 0-.147-.664Zm-6.547 9.13a.358.358 0 0 0 .157.482 9.984 9.984 0 0 0 4.291 1.071h.01a.358.358 0 0 0 .008-.717 9.272 9.272 0 0 1-3.985-.994.36.36 0 0 0-.481.158Zm-.786-.929a9.631 9.631 0 0 1-.344-.258.358.358 0 1 0-.443.565c.121.094.245.187.369.276a.36.36 0 0 0 .565-.35.358.358 0 0 0-.147-.233Z"/></g><defs><clipPath id="a"><path fill="#fff" d="M0 0h30v30H0z"/></clipPath></defs></svg>