<svg xmlns="http://www.w3.org/2000/svg" viewBox="0 0 100 100" width="50" height="50"><path fill="#c7ede6" d="M88.704 55.677c.3-.616.566-1.264.796-1.943 2.633-7.77-1.349-17.078-9.733-19.325-.907-11.383-8.907-19.193-17.941-20.525-10.341-1.525-19.814 5.044-22.966 15.485-3.799-1.346-7.501-1.182-10.99.857-1.583.732-3.031 1.812-4.33 3.233-1.907 2.086-3.147 4.719-3.652 7.495-.748.118-1.483.236-2.176.484-4.04 1.449-6.589 4.431-7.288 8.923-.435 2.797.443 5.587.933 6.714 1.935 4.455 6.422 6.98 10.981 6.312.227-.033.557.069.752.233.241 7.12 3.698 13.417 8.884 17.014 8.321 5.772 19.027 3.994 25.781-3.921 2.894 2.96 6.338 4.398 10.384 3.876 4.023-.519 7.147-2.739 9.426-6.349 1.053.283 2.051.691 3.083.804 4.042.442 7.324-1.165 9.732-4.8.922-1.391 1.793-3.194 1.793-6.354.001-3.256-1.293-6.223-3.469-8.213z"/><path fill="#fff" d="M18.368 47.713H8.338a.5.5 0 0 1 0-1h10.03a.5.5 0 0 1 0 1zm2.882 0h-1.446a.5.5 0 0 1 0-1h1.446a.5.5 0 0 1 0 1zm4.054 0h-2.546a.5.5 0 0 1 0-1h2.546a.5.5 0 0 1 0 1zm0 1.865h-9.616a.5.5 0 0 1 0-1h9.616a.5.5 0 0 1 0 1zm-11.348 0h-.58a.5.5 0 0 1 0-1h.58a.5.5 0 0 1 0 1zm-2.377 0h-1.456a.5.5 0 0 1 0-1h1.456a.5.5 0 0 1 0 1zm9.136-3.73h-5.027a.5.5 0 0 1 0-1h5.027a.5.5 0 0 1 0 1zm0-1.865h-1.257a.5.5 0 0 1 0-1h1.257a.5.5 0 0 1 0 1zm-3.268 7.46h-1.759a.5.5 0 0 1 0-1h1.759a.5.5 0 0 1 0 1zm56.947-26.051h-10.03a.5.5 0 0 1 0-1h10.03a.5.5 0 0 1 0 1zm2.882 0H75.83a.5.5 0 0 1 0-1h1.446a.5.5 0 0 1 0 1zm4.054 0h-2.546a.5.5 0 0 1 0-1h2.546a.5.5 0 0 1 0 1zm0 1.865h-9.617a.5.5 0 0 1 0-1h9.617a.5.5 0 0 1 0 1zm-11.348 0h-.58a.5.5 0 0 1 0-1h.58a.5.5 0 0 1 0 1zm-2.377 0h-1.456a.5.5 0 0 1 0-1h1.456a.5.5 0 0 1 0 1zm9.136-3.73h-5.028a.5.5 0 0 1 0-1h5.028a.5.5 0 0 1 0 1zm0-1.865h-1.257a.5.5 0 0 1 0-1h1.257a.5.5 0 0 1 0 1zm-3.269 7.46h-1.759a.5.5 0 0 1 0-1h1.759a.5.5 0 0 1 0 1z"/><path fill="#fdfcef" d="M74.965 48.546h10.681a4.438 4.438 0 0 0 .912-8.783c.023-.187.039-.377.039-.57A4.598 4.598 0 0 0 82 34.595a4.586 4.586 0 0 0-3.666 1.831 5.072 5.072 0 0 0-10.037-.573 5.167 5.167 0 0 0 .013 1.977 3.156 3.156 0 0 0-2.322-1.016 3.168 3.168 0 0 0-3.16 2.961 4.26 4.26 0 0 0-2.467.17c-1.671.627-2.861 2.2-2.93 3.983a4.439 4.439 0 0 0 4.435 4.617h10.233"/><path fill="#472b29" d="M85.646 49.046H74.965a.5.5 0 0 1 0-1h10.681a3.943 3.943 0 0 0 3.939-3.939 3.954 3.954 0 0 0-3.129-3.855.5.5 0 0 1-.394-.55c.021-.168.035-.337.035-.51a4.103 4.103 0 0 0-4.098-4.098 4.066 4.066 0 0 0-3.267 1.632.502.502 0 0 1-.898-.263 4.595 4.595 0 0 0-1.664-3.19 4.562 4.562 0 0 0-3.471-.997c-1.947.238-3.556 1.747-3.913 3.668a4.644 4.644 0 0 0 .011 1.786.5.5 0 0 1-.856.441 2.645 2.645 0 0 0-1.956-.856 2.674 2.674 0 0 0-2.661 2.494.498.498 0 0 1-.607.455 3.736 3.736 0 0 0-2.183.15c-1.498.562-2.545 1.982-2.606 3.535a3.916 3.916 0 0 0 1.096 2.889 3.905 3.905 0 0 0 2.84 1.209h10.233a.5.5 0 0 1 0 1H61.866a4.901 4.901 0 0 1-3.561-1.516 4.905 4.905 0 0 1-1.375-3.621c.076-1.949 1.384-3.73 3.254-4.432a4.76 4.76 0 0 1 2.221-.279 3.677 3.677 0 0 1 3.582-2.884c.603 0 1.194.151 1.72.431.004-.327.036-.655.097-.983.436-2.346 2.399-4.188 4.775-4.478a5.532 5.532 0 0 1 4.226 1.216 5.614 5.614 0 0 1 1.847 2.851 5.044 5.044 0 0 1 3.347-1.256 5.104 5.104 0 0 1 5.094 5.29 4.961 4.961 0 0 1 3.492 4.723 4.945 4.945 0 0 1-4.939 4.937z"/><path fill="#fdfcef" d="M72.392 38.767c-1.642-.108-3.055 1.026-3.157 2.533-.013.187-.004.371.023.55a1.934 1.934 0 0 0-1.324-.636c-.985-.065-1.836.586-1.959 1.471a2.837 2.837 0 0 0-.56-.095c-1.437-.094-2.674.898-2.762 2.216"/><path fill="#472b29" d="M62.654 45.057h-.017a.25.25 0 0 1-.233-.266c.098-1.454 1.453-2.556 3.028-2.449.116.008.234.022.353.045.26-.878 1.158-1.485 2.166-1.421.377.025.73.139 1.035.33v-.012c.111-1.641 1.652-2.872 3.423-2.765a.25.25 0 1 1-.033.499c-1.514-.102-2.799.933-2.891 2.3-.011.165-.004.332.021.496a.25.25 0 0 1-.434.203 1.699 1.699 0 0 0-1.154-.552c-.846-.056-1.589.496-1.695 1.256a.253.253 0 0 1-.109.174.252.252 0 0 1-.203.033 2.612 2.612 0 0 0-.511-.086c-1.303-.085-2.417.805-2.497 1.983a.25.25 0 0 1-.249.232z"/><path fill="#fdfcef" d="M87.443 40.283c-1.543-.727-3.327-.213-3.985 1.15a2.408 2.408 0 0 0-.182.521"/><path fill="#472b29" d="M83.275 42.204a.25.25 0 0 1-.244-.305c.045-.199.113-.393.201-.574.716-1.484 2.651-2.054 4.317-1.268a.25.25 0 0 1-.213.453c-1.417-.667-3.056-.204-3.654 1.033a2.165 2.165 0 0 0-.164.468.25.25 0 0 1-.243.193z"/><path fill="#babce2" d="M65.26 69.974H39.538c-3.766 0-6.847-3.081-6.847-6.847V37.405c0-3.766 3.081-6.847 6.847-6.847H65.26c3.766 0 6.847 3.081 6.847 6.847v25.722c.001 3.766-3.081 6.847-6.847 6.847z"/><path fill="#472b29" d="M65.261 70.675H39.538c-4.162 0-7.548-3.386-7.548-7.547V37.405c0-4.162 3.386-7.547 7.548-7.547H65.26c4.162 0 7.547 3.386 7.547 7.547v25.722c.001 4.162-3.385 7.548-7.546 7.548zM39.538 31.258a6.153 6.153 0 0 0-6.147 6.147v25.722a6.154 6.154 0 0 0 6.147 6.147H65.26a6.153 6.153 0 0 0 6.147-6.147V37.405a6.153 6.153 0 0 0-6.147-6.147H39.538z"/><path fill="#fdfcee" d="M63.743 67.159H41.055c-3.052 0-5.549-2.497-5.549-5.549V38.922c0-3.052 2.497-5.549 5.549-5.549h22.688c3.052 0 5.549 2.497 5.549 5.549V61.61c0 3.052-2.497 5.549-5.549 5.549z"/><path fill="#472b29" d="M64.158 67.509H40.64a5.49 5.49 0 0 1-5.484-5.484V38.508a5.49 5.49 0 0 1 5.484-5.484h22.395a.35.35 0 0 1 0 .7H40.64a4.79 4.79 0 0 0-4.784 4.784v23.517a4.79 4.79 0 0 0 4.784 4.784h23.518a4.79 4.79 0 0 0 4.784-4.784v-13.01a.35.35 0 0 1 .7 0v13.01a5.49 5.49 0 0 1-5.484 5.484z"/><path fill="#472b29" d="M69.292 47.488a.35.35 0 0 1-.35-.35v-2.503a.35.35 0 0 1 .7 0v2.503a.35.35 0 0 1-.35.35zm0-3.754a.35.35 0 0 1-.35-.35v-1.251a.35.35 0 0 1 .7 0v1.251a.35.35 0 0 1-.35.35z"/><path fill="#8a8dce" d="M62.446 43.317a5.175 5.175 0 0 0-1.221-1.877 5.175 5.175 0 0 0-1.877-1.221c-.672-.262-1.45-.443-2.573-.492-1.131-.049-1.491-.066-4.376-.066-2.885 0-3.245.008-4.376.066-1.131.049-1.901.229-2.573.492-.697.27-1.287.631-1.877 1.221s-.951 1.18-1.221 1.877c-.262.672-.443 1.45-.492 2.573-.049 1.131-.066 1.491-.066 4.376s.008 3.245.066 4.376c.049 1.131.229 1.901.492 2.573.27.697.631 1.287 1.221 1.877s1.18.951 1.877 1.221c.672.262 1.45.443 2.573.492 1.131.049 1.491.066 4.376.066 2.885 0 3.245-.008 4.376-.066 1.131-.049 1.901-.229 2.573-.492.697-.27 1.287-.631 1.877-1.221s.951-1.18 1.221-1.877c.262-.672.443-1.45.492-2.573.049-1.131.066-1.491.066-4.376s-.008-3.245-.066-4.376c-.05-1.131-.23-1.901-.492-2.573z"/><path fill="#472b29" d="M52.399 61.22c-2.869 0-3.245-.017-4.364-.064-1.09-.048-1.918-.207-2.712-.517a5.512 5.512 0 0 1-1.997-1.3 5.5 5.5 0 0 1-1.299-1.998c-.311-.795-.469-1.623-.515-2.685-.058-1.136-.066-1.491-.066-4.391 0-2.872.017-3.249.065-4.368.047-1.085.206-1.913.516-2.708a5.522 5.522 0 0 1 1.299-1.997 5.512 5.512 0 0 1 1.997-1.3c.795-.31 1.623-.469 2.685-.515 1.138-.058 1.492-.066 4.391-.066 2.883 0 3.261.017 4.38.065 1.075.047 1.903.206 2.696.516a5.53 5.53 0 0 1 1.997 1.3 5.52 5.52 0 0 1 1.3 1.997c.31.795.469 1.623.515 2.685.058 1.136.066 1.491.066 4.391 0 2.872-.017 3.249-.065 4.368-.047 1.087-.206 1.915-.516 2.709a5.53 5.53 0 0 1-1.3 1.997 5.53 5.53 0 0 1-1.997 1.3c-.794.31-1.623.469-2.685.515-1.137.058-1.492.066-4.391.066zm0-21.208c-2.882 0-3.233.008-4.358.065-.984.043-1.743.187-2.464.468a4.859 4.859 0 0 0-1.756 1.143 4.835 4.835 0 0 0-1.142 1.755c-.281.721-.425 1.48-.468 2.461-.049 1.131-.065 1.504-.065 4.361 0 2.883.008 3.235.065 4.358.042.983.187 1.743.468 2.463a4.844 4.844 0 0 0 1.142 1.756 4.859 4.859 0 0 0 1.756 1.143c.72.281 1.479.425 2.461.468 1.135.049 1.507.065 4.361.065 2.882 0 3.233-.008 4.358-.065.985-.043 1.744-.188 2.463-.468a4.842 4.842 0 0 0 1.756-1.143 4.85 4.85 0 0 0 1.143-1.755c.281-.72.425-1.479.468-2.462.049-1.131.065-1.504.065-4.361 0-2.883-.008-3.235-.065-4.358-.042-.984-.187-1.743-.468-2.463v-.001a4.85 4.85 0 0 0-1.143-1.755 4.85 4.85 0 0 0-1.756-1.143c-.719-.281-1.478-.425-2.461-.468-1.118-.047-1.492-.064-4.36-.064z"/><path fill="#fdfcef" d="M52.391 44.817c-3.007 0-5.449 2.442-5.449 5.449s2.442 5.449 5.449 5.449 5.449-2.442 5.449-5.449-2.442-5.449-5.449-5.449z"/><path fill="#472b29" d="M52.391 56.066c-3.198 0-5.799-2.602-5.799-5.8s2.602-5.799 5.799-5.799 5.8 2.602 5.8 5.799-2.602 5.8-5.8 5.8zm0-10.899a5.105 5.105 0 0 0-5.099 5.099c0 2.812 2.288 5.1 5.099 5.1 2.812 0 5.1-2.288 5.1-5.1a5.105 5.105 0 0 0-5.1-5.099z"/><path fill="#fdfcef" d="M58.254 42.964a1.27 1.27 0 1 0 0 2.54 1.27 1.27 0 1 0 0-2.54Z"/><path fill="#472b29" d="M58.254 45.854c-.893 0-1.62-.727-1.62-1.62 0-.894.727-1.621 1.62-1.621.894 0 1.621.727 1.621 1.621a1.624 1.624 0 0 1-1.621 1.62zm0-2.54a.921.921 0 0 0-.92.92.92.92 0 1 0 .92-.92z"/><path fill="#fdfcef" d="M42.126 72.487h3.215c1.916 0 3.469-1.52 3.469-3.396 0-1.636-1.182-3.001-2.756-3.323.018-.143.031-.288.031-.436 0-1.942-1.609-3.517-3.593-3.517a3.608 3.608 0 0 0-2.865 1.401c-.168-2.162-2.141-3.83-4.45-3.554-1.688.202-3.084 1.479-3.395 3.116a3.86 3.86 0 0 0 .01 1.512 2.494 2.494 0 0 0-1.814-.777c-1.313 0-2.385 1.001-2.47 2.265a3.398 3.398 0 0 0-1.928.13c-1.306.48-2.236 1.683-2.29 3.047-.077 1.937 1.504 3.532 3.467 3.532h7.998m1.49 0h.327"/><path fill="#472b29" d="M45.341 72.987h-3.215a.5.5 0 0 1 0-1h3.215c1.637 0 2.969-1.299 2.969-2.896 0-1.363-.991-2.554-2.356-2.833a.5.5 0 0 1-.396-.552c.016-.123.027-.247.027-.374 0-1.664-1.388-3.017-3.093-3.017-.977 0-1.877.44-2.47 1.207a.5.5 0 0 1-.894-.267 3.331 3.331 0 0 0-1.227-2.332 3.493 3.493 0 0 0-2.665-.764c-1.475.177-2.694 1.292-2.963 2.712-.084.443-.081.887.008 1.317a.5.5 0 0 1-.852.446 1.981 1.981 0 0 0-1.452-.622c-1.038 0-1.903.79-1.971 1.799a.502.502 0 0 1-.604.455 2.87 2.87 0 0 0-1.65.111c-1.129.415-1.917 1.459-1.963 2.598a2.84 2.84 0 0 0 .799 2.096 2.976 2.976 0 0 0 2.167.916h7.998a.5.5 0 0 1 0 1h-7.998a4.017 4.017 0 0 1-2.888-1.224 3.83 3.83 0 0 1-1.078-2.828c.061-1.538 1.113-2.943 2.617-3.496a3.914 3.914 0 0 1 1.688-.228c.332-1.268 1.507-2.198 2.882-2.198.431 0 .854.094 1.24.269.011-.199.035-.397.073-.597.35-1.844 1.924-3.291 3.827-3.519a4.497 4.497 0 0 1 3.418.984 4.344 4.344 0 0 1 1.399 2.047 4.1 4.1 0 0 1 2.557-.882c2.257 0 4.093 1.802 4.093 4.017v.06c1.603.52 2.726 2.011 2.726 3.7.001 2.147-1.779 3.895-3.968 3.895zm-8.77 0h-.327a.5.5 0 0 1 0-1h.327a.5.5 0 0 1 0 1z"/><path fill="#472b29" d="M43.79 67.695a.25.25 0 0 1-.244-.305c.035-.153.087-.301.157-.441.555-1.123 2.084-1.537 3.409-.924a.25.25 0 0 1-.21.454c-1.081-.501-2.315-.19-2.751.692a1.407 1.407 0 0 0-.116.328.253.253 0 0 1-.245.196zm-4.684 5.292h-1.005a.5.5 0 0 1 0-1h1.005a.5.5 0 0 1 0 1z"/></svg>