<svg width="30" height="30" fill="none" xmlns="http://www.w3.org/2000/svg"><g clip-path="url(#a)" fill="#A4ACAD"><path d="m29.21 14.303-2.33-2.712c-.36-.418-.75-.82-1.159-1.193a.443.443 0 0 0-.596.654c.338.309.661.638.963.98a13.617 13.617 0 0 1-1.23 6.192l-3.12-1.406c-.088-.04-.176-.078-.265-.116a14.52 14.52 0 0 0-.84-8.302c1.075.366 3.647 2.09 4.592 2.73a.44.44 0 0 0 .614-.117.442.442 0 0 0-.118-.615c-1.908-1.291-5.667-3.3-7.958-3.51a2.05 2.05 0 0 0-1.643-.823h-3.336c-.743 0-1.394.396-1.755.989a13.696 13.696 0 0 0-7.908 4.537L.79 14.303a3.288 3.288 0 0 0-.37 3.744 3.27 3.27 0 0 0 2.037 1.566 3.687 3.687 0 0 0 .788 2.705 3.692 3.692 0 0 0 2.902 1.398h5.716c.277.14.59.22.921.22h3.336c.332 0 .644-.08.922-.22h6.752c1.137 0 2.194-.51 2.902-1.398a3.686 3.686 0 0 0 .789-2.69 3.27 3.27 0 0 0 2.096-1.58 3.288 3.288 0 0 0-.37-3.745Zm-9.688-6.226a13.63 13.63 0 0 1 1.114 8.294c-.8-.29-1.625-.516-2.464-.674v-7.58c0-.1-.007-.198-.02-.293.46.06.918.143 1.37.253Zm-8.79.04v4.267A14.56 14.56 0 0 0 7.65 9.128c.972-.5 2.01-.875 3.086-1.112a2.111 2.111 0 0 0-.003.1ZM1.19 17.612a2.401 2.401 0 0 1 .27-2.734l1.257-1.462c.495.27.978.574 1.44.906.079.057 1.324 1.17 1.413 1.17.138 0 .344-.373.43-.493.143-.198.377-.007.179-.15-.44-.317-2.404-1.854-2.873-2.118l.485-.565A12.78 12.78 0 0 1 6.807 9.6a13.652 13.652 0 0 1 3.925 4.464v1.879a15.85 15.85 0 0 0-2.47.874l-.266.12a14.527 14.527 0 0 0-1.817-2.088.442.442 0 1 0-.609.642 13.639 13.639 0 0 1 1.602 1.817L4.26 18.622a2.381 2.381 0 0 1-3.07-1.009Zm2.746 4.154a2.81 2.81 0 0 1-.6-2.05c.44-.008.877-.104 1.287-.289l4.002-1.804a15 15 0 0 1 2.107-.763v3.788h-.442a.442.442 0 1 0 0 .884h.442v.35c0 .342.085.665.233.949H6.147a2.81 2.81 0 0 1-2.21-1.065Zm22.069 0a2.812 2.812 0 0 1-2.21 1.065h-5.856c.133-.254.215-.539.23-.84h.512a.442.442 0 0 0 0-.884h-.509v-2.666a.442.442 0 0 0-.884 0v3.442c0 .643-.524 1.167-1.167 1.167h-3.337a1.169 1.169 0 0 1-1.167-1.167V8.116c0-.643.523-1.167 1.167-1.167h3.337c.643 0 1.167.524 1.167 1.167v10.218a.442.442 0 1 0 .884 0v-1.737c1.104.221 2.179.566 3.203 1.027l4.002 1.804c.392.177.808.272 1.229.287a2.81 2.81 0 0 1-.601 2.052Zm2.805-4.154a2.381 2.381 0 0 1-3.07 1.009l-.077-.035a14.51 14.51 0 0 0 1.31-5.53l1.566 1.822c.654.761.763 1.86.27 2.734Z"/><path d="M19.992 18.034h-.426a.442.442 0 0 0 0 .885h.426a.442.442 0 1 0 0-.885Zm2.393 1.869h-.721a.442.442 0 1 0 0 .885h.72a.442.442 0 1 0 0-.885Zm-12.014-.627a.442.442 0 0 0-.442-.442h-.787a.442.442 0 0 0 0 .884h.787a.442.442 0 0 0 .442-.442Zm-3.163 1.373h-1.41a.442.442 0 0 0 0 .884h1.41a.442.442 0 1 0 0-.884Z"/></g><defs><clipPath id="a"><path fill="#fff" d="M0 0h30v30H0z"/></clipPath></defs></svg>