<svg xmlns="http://www.w3.org/2000/svg" viewBox="0 0 100 100" width="50" height="50"><path fill="#c7ede6" d="M87.2 56.7c1.1-2.2 1.8-4.6 1.8-7.2 0-6.6-4.2-12.3-10-14.5 0-11.6-9.4-21-21-21-9.8 0-18 6.7-20.3 15.8-1.5-.5-3-.8-4.7-.8-7.7 0-14 5.8-14.9 13.3C12.9 43.4 9 48 9 53.5 9 59.9 14.1 65 20.5 65h.5v.5C21 76.8 30.2 86 41.5 86c6.4 0 12.2-3 15.9-7.6 2.2 2.2 5.2 3.6 8.6 3.6 4.7 0 8.7-2.7 10.7-6.5 1.1.3 2.2.5 3.3.5 6.1 0 11-4.9 11-11 0-3.3-1.5-6.3-3.8-8.3z"/><path fill="#fdfcef" d="M76.5 70.5v.5h3v-.5H85c2.5 0 4.5-2 4.5-4.5 0-2.3-1.8-4.2-4.1-4.5 0-.2.1-.4.1-.5 0-2.5-2-4.5-4.5-4.5-1.4 0-2.7.7-3.5 1.7-.1-2.6-2.3-4.7-5-4.7-2.8 0-5 2.2-5 5 0 .4.1.9.2 1.3-.7-.8-1.6-1.3-2.7-1.3-1.8 0-3.2 1.3-3.5 3.1-.2 0-.4-.1-.5-.1-2.5 0-4.5 2-4.5 4.5s2 4.5 4.5 4.5h15.5z"/><path fill="#472b29" d="M72.5 53c-3 0-5.5 2.5-5.5 5.5-.6-.4-1.3-.5-2-.5-1.8 0-3.4 1.3-3.9 3H61c-2.8 0-5 2.2-5 5s2.2 5 5 5h15.5c.3 0 .5-.2.5-.5s-.2-.5-.5-.5H61c-2.2 0-4-1.8-4-4s1.8-4 4-4h.5c.2 0 .5-.2.5-.4.2-1.5 1.5-2.6 3-2.6.9 0 1.7.4 2.3 1.1.1.1.2.2.4.2.1 0 .2 0 .2-.1.2-.1.3-.3.3-.6-.1-.4-.2-.8-.2-1.2 0-2.5 2-4.5 4.5-4.5 2.4 0 4.3 1.9 4.5 4.3 0 .2.2.4.3.5h.2c.2 0 .3-.1.4-.2.8-1 1.9-1.5 3.1-1.5 2.2 0 4 1.8 4 4v.4c0 .1 0 .3.1.4s.2.2.3.2c2.1.2 3.6 1.9 3.6 4 0 2.2-1.8 4-4 4h-5.5c-.3 0-.5.2-.5.5s.2.5.5.5H85c2.8 0 5-2.2 5-5 0-2.4-1.7-4.4-4-4.9V61c0-2.8-2.2-5-5-5-1.2 0-2.3.4-3.2 1.2-.6-2.4-2.7-4.2-5.3-4.2z"/><path fill="#472b29" d="M71 60c-1.4 0-2.6 1-2.9 2.3-.4-.2-.8-.3-1.2-.3-1.2 0-2.2.9-2.4 2.1-.2 0-.4-.1-.6-.1-1.5 0-2.8 1.2-2.9 2.7 0 .1.1.3.2.3s.2-.1.2-.2c.1-1.3 1.2-2.3 2.4-2.3.2 0 .5 0 .7.1h.1c.1 0 .1 0 .2-.1.1 0 .1-.1.1-.2 0-1 .8-1.9 1.9-1.9.4 0 .9.2 1.2.5 0 0 .1.1.2.1h.1c.1 0 .1-.1.2-.2.1-1.3 1.2-2.3 2.5-2.3.2 0 .4 0 .7.1h.1c.1 0 .2-.1.2-.2s0-.3-.2-.3c-.3-.1-.5-.1-.8-.1zm13.9 1.5c-1.3 0-2.5.9-2.9 2.2 0 .1 0 .3.2.3h.1c.1 0 .2-.1.2-.2.3-1.1 1.3-1.8 2.4-1.8h.3c.1 0 .2-.1.2-.2s-.1-.3-.2-.3h-.3z"/><path fill="#fff" d="M33.5 80h-10c-.3 0-.5-.2-.5-.5s.2-.5.5-.5h10c.3 0 .5.2.5.5s-.2.5-.5.5zm3 0h-1c-.3 0-.5-.2-.5-.5s.2-.5.5-.5h1c.3 0 .5.2.5.5s-.2.5-.5.5zm5 2h-9c-.3 0-.5-.2-.5-.5s.2-.5.5-.5h9c.3 0 .5.2.5.5s-.2.5-.5.5zm-11 0h-1c-.3 0-.5-.2-.5-.5s.2-.5.5-.5h1c.3 0 .5.2.5.5s-.2.5-.5.5zm-3 0h-2c-.3 0-.5-.2-.5-.5s.2-.5.5-.5h2c.3 0 .5.2.5.5s-.2.5-.5.5zm6 2h-2c-.3 0-.5-.2-.5-.5s.2-.5.5-.5h2c.3 0 .5.2.5.5s-.2.5-.5.5zm3-9h-1c-.3 0-.5.2-.5.5s.2.5.5.5h1c.3 0 .5-.2.5-.5s-.2-.5-.5-.5zm0 2h-5c-.3 0-.5.2-.5.5s.2.5.5.5h5c.3 0 .5-.2.5-.5s-.2-.5-.5-.5zm5 2h-3c-.3 0-.5.2-.5.5s.2.5.5.5h3c.3 0 .5-.2.5-.5s-.2-.5-.5-.5zm31-55h-10c-.3 0-.5-.2-.5-.5s.2-.5.5-.5h10c.3 0 .5.2.5.5s-.2.5-.5.5zm4 0h-2c-.3 0-.5-.2-.5-.5s.2-.5.5-.5h2c.3 0 .5.2.5.5s-.2.5-.5.5zm5 2h-10c-.3 0-.5-.2-.5-.5s.2-.5.5-.5h10c.3 0 .5.2.5.5s-.2.5-.5.5zm-12 0h-1c-.3 0-.5-.2-.5-.5s.2-.5.5-.5h1c.3 0 .5.2.5.5s-.2.5-.5.5zm-3 0h-2c-.3 0-.5-.2-.5-.5s.2-.5.5-.5h2c.3 0 .5.2.5.5s-.3.5-.5.5zm9-4h-5c-.3 0-.5-.2-.5-.5s.2-.5.5-.5h5c.3 0 .5.2.5.5s-.2.5-.5.5zm-3 6h-2c-.3 0-.5-.2-.5-.5s.2-.5.5-.5h2c.3 0 .5.2.5.5s-.2.5-.5.5z"/><path fill="#add4a1" d="M52.5 26C39.5 26 29 36.5 29 49.5c0 4.5 1.2 8.6 3.4 12.2L29 72.1l10.1-3.3c3.8 2.7 8.4 4.2 13.4 4.2C65.5 73 76 62.5 76 49.5S65.5 26 52.5 26z"/><path fill="#472b29" d="M52.5 73.7c-4.9 0-9.5-1.4-13.5-4.1l-9.7 3.2c-.3.1-.5 0-.7-.2-.2-.2-.3-.5-.2-.7l3.3-10.1c-2.2-3.7-3.3-7.9-3.3-12.3 0-13.3 10.9-24.2 24.2-24.2s24.2 10.9 24.2 24.2-11 24.2-24.3 24.2zm-13.4-5.6c.1 0 .3 0 .4.1 3.8 2.7 8.3 4.1 13 4.1 12.6 0 22.8-10.2 22.8-22.8 0-12.6-10.2-22.8-22.8-22.8-12.6 0-22.8 10.2-22.8 22.8 0 4.2 1.1 8.3 3.3 11.8.1.2.1.4.1.6l-3 9.1 8.7-2.9h.3z"/><path fill="#5aba9e" d="M67.6 38.1c-3.5-4.5-8.9-7.5-15.1-7.5-10.4 0-18.9 8.5-18.9 18.9 0 3.9 1.2 7.6 3.3 10.6l-2 6.2 6-1.9c3.2 2.5 7.3 4.1 11.7 4.1 10.4 0 18.9-8.5 18.9-18.9 0-1.1-.1-2.1-.3-3.2"/><path fill="#472b29" d="M52.5 68.9c-4.3 0-8.4-1.4-11.8-4L35 66.8c-.2.1-.4 0-.5-.1-.1-.1-.2-.3-.1-.5l1.9-6c-2.1-3.2-3.2-6.9-3.2-10.7 0-10.7 8.7-19.4 19.4-19.4 6.1 0 11.8 2.8 15.5 7.7.2.2.1.5-.1.7-.2.2-.5.1-.7-.1-3.5-4.6-8.9-7.3-14.7-7.3-10.1 0-18.4 8.3-18.4 18.4 0 3.7 1.1 7.3 3.2 10.3.1.1.1.3.1.4l-1.7 5.3 5-1.6c.2-.1.3 0 .5.1 3.3 2.6 7.2 4 11.4 4C62.7 68 71 59.7 71 49.6c0-1-.1-2.1-.3-3.1 0-.3.1-.5.4-.6.3 0 .5.1.6.4.2 1.1.3 2.2.3 3.2-.1 10.7-8.8 19.4-19.5 19.4z"/><path fill="#5aba9e" d="M70.5 43.6c-.4-1.1-.9-2.2-1.4-3.3"/><path fill="#472b29" d="M70.5 44.1c-.2 0-.4-.1-.5-.3-.4-1.1-.8-2.2-1.4-3.2-.1-.2 0-.5.2-.7.2-.1.5 0 .7.2.6 1.1 1.1 2.2 1.5 3.3.1.3-.1.5-.3.6-.1.1-.2.1-.2.1z"/><path fill="#fdfcee" d="M60.1 59.6c-1.4 0-3.4-.5-6.3-1.7-3.8-1.5-7.6-4.6-10.7-8.8l-.2-.2c-.9-1.2-2.5-3.6-2.5-6-.1-1.8.7-3.6 2.2-4.8.5-.4 1.2-.6 1.8-.6h1.3c.1 0 .2.1.3.2.2.2.3.4.4.7l.8 1.7c.6 1.4 1.1 2.5 1.2 2.7.1.1.3.5.1.9-.2.3-.4.6-.6.8-.1.2-.2.3-.4.4l-.1.1-.6.6c-.5.5-.6 1.1-.3 1.6 1 1.6 2.2 3 3.7 4.2 1.5 1.3 3.2 2.3 5.1 3l.2.1c.2.1.5.2.8.2.5 0 .9-.2 1.2-.5.5-.5 1-1.2 1.5-1.8l.3-.4c.1-.1.3-.4.7-.4.1 0 .3 0 .4.1.5.2 3.3 1.4 4.3 1.9l.4.2.5.2c.2.1.3.2.3.4 0 .9-.1 1.7-.4 2.5-.5 1.2-2.5 2.4-4.1 2.7-.4-.1-.8 0-1.3 0z"/><path fill="#472b29" d="M45.4 38h.2c.1.1.2.3.3.5l.6 1.3c.8 1.7 1.3 3 1.4 3.2s.1.3.1.4c-.1.3-.3.5-.5.7l-.1.1-.4.4-.6.6c-.7.6-.8 1.5-.3 2.2 1 1.6 2.3 3.1 3.8 4.3 1.5 1.3 3.3 2.3 5.2 3l.2.1c.3.1.6.2.9.2.6 0 1.2-.2 1.6-.6.5-.6 1.1-1.2 1.5-1.8l.3-.4c.1-.1.2-.2.3-.2.1 0 .2 0 .3.1.5.2 3.2 1.4 4.3 1.9l.4.2.5.2c0 .8-.1 1.6-.4 2.3-.4 1.1-2.2 2.1-3.7 2.4-.3.1-.6.1-1.1.1-1 0-2.7-.3-6.2-1.6-3.7-1.4-7.5-4.5-10.5-8.6l-.2-.2c-.9-1.2-2.4-3.4-2.4-5.7-.1-1.7.7-3.3 2-4.5.4-.3 1-.5 1.5-.5h.8c0-.1.1-.1.2-.1m0-1h-1c-.8 0-1.5.3-2.1.7-1.6 1.3-2.4 3.3-2.4 5.2 0 2.5 1.7 5 2.7 6.3l.2.2c3.1 4.2 7 7.4 10.9 8.9 3 1.2 5.1 1.7 6.5 1.7.6 0 1-.1 1.3-.1 1.7-.3 3.9-1.5 4.4-3 .3-.8.5-1.8.5-2.7 0-.4-.3-.7-.6-.9l-.5-.2-.5-.1c-.9-.4-3.8-1.8-4.4-2-.1 0-.3-.1-.6-.1-.7 0-1 .5-1.1.6l-.3.4c-.5.6-.9 1.2-1.4 1.7-.2.2-.5.3-.9.3-.2 0-.4 0-.5-.1l-.2-.1c-1.8-.7-3.5-1.6-4.9-2.9-1.4-1.2-2.6-2.6-3.6-4.1-.2-.3-.1-.7.1-.9l.1-.1c.2-.2.4-.4.5-.6l.1-.1.3-.3c.3-.3.5-.6.7-.9.2-.3.3-.8-.1-1.4-.1-.2-.6-1.3-1.2-2.6l-.2-.5-.6-1.3c-.1-.3-.3-.6-.5-.8-.2-.2-.4-.3-.6-.3 0 .1-.1.1-.1.1z"/><path fill="#fdfcef" d="M32.5 56.5H36c1.9 0 3.5-1.6 3.5-3.5 0-1.8-1.3-3.2-3.1-3.5 0-.2.1-.4.1-.5 0-1.9-1.6-3.5-3.5-3.5-1 0-2 .5-2.6 1.2-.4-1.8-2-3.2-3.9-3.2-2.2 0-4 1.8-4 4 0 .2 0 .4.1.6-.4-.3-1-.6-1.6-.6-1.2 0-2.2.9-2.5 2.1-.2 0-.4-.1-.5-.1-1.9 0-3.5 1.6-3.5 3.5s1.6 3.5 3.5 3.5h7.5v.5h7v-.5z"/><path fill="#472b29" d="M34.3 52c-.1 0-.3-.1-.3-.3 0-1.2 1-2.2 2.2-2.2 0 0 .7 0 1.2.1.1 0 .2.2.2.3 0 .1-.2.2-.3.2-.4-.1-1.1-.1-1.1-.1-.9 0-1.7.8-1.7 1.7 0 .2-.1.3-.2.3zm-6.8 4a.5.5 0 1 0 0 1 .5.5 0 1 0 0-1z"/><path fill="#472b29" d="M36 57h-3.5c-.3 0-.5-.2-.5-.5s.2-.5.5-.5H36c1.7 0 3-1.3 3-3 0-1.5-1.1-2.8-2.6-3-.1 0-.3-.1-.3-.2s-.1-.2-.1-.4v-.5c0-1.7-1.3-3-3-3-.8 0-1.6.4-2.2 1-.1.1-.3.2-.5.1-.2 0-.3-.2-.4-.4-.3-1.6-1.8-2.8-3.4-2.8-1.9 0-3.5 1.6-3.5 3.5v.4c0 .2-.1.4-.2.5s-.4.1-.6 0c-.3 0-.8-.2-1.2-.2-1 0-1.8.7-2 1.6 0 .3-.3.4-.6.4h-.5c-1.7 0-3 1.3-3 3s1.3 3 3 3h7.5c.3 0 .5.2.5.5s-.1.5-.4.5H18c-2.2 0-4-1.8-4-4s1.8-4 4-4h.2c.4-1.2 1.5-2 2.8-2 .3 0 .7.1 1 .2.2-2.3 2.1-4.2 4.5-4.2 1.8 0 3.5 1.1 4.2 2.8.7-.5 1.5-.8 2.3-.8 2.2 0 4 1.8 4 4v.1c1.7.4 3 2 3 3.9 0 2.2-1.8 4-4 4z"/><path fill="#472b29" d="M30.5 56h-1c-.3 0-.5.2-.5.5s.2.5.5.5h1c.3 0 .5-.2.5-.5s-.2-.5-.5-.5z"/></svg>